<svg xmlns="http://www.w3.org/2000/svg" width="720" height="300" viewBox="0 0 720 300" role="img" aria-label="The positive rate of one group over another's."><rect width="100%" height="100%" fill="#fcfcfb"/><line x1="90.00" y1="230.00" x2="650.00" y2="230.00" stroke="#e6e5e1" stroke-width="1" stroke-linecap="round" stroke-opacity="1.0"/><text x="82.00" y="234.00" font-family="Inter, 'Segoe UI', Helvetica, Arial, sans-serif" font-size="11" fill="#52514e" text-anchor="end" font-weight="normal">0</text><line x1="90.00" y1="139.09" x2="650.00" y2="139.09" stroke="#e6e5e1" stroke-width="1" stroke-linecap="round" stroke-opacity="1.0"/><text x="82.00" y="143.09" font-family="Inter, 'Segoe UI', Helvetica, Arial, sans-serif" font-size="11" fill="#52514e" text-anchor="end" font-weight="normal">0.5</text><line x1="90.00" y1="48.18" x2="650.00" y2="48.18" stroke="#e6e5e1" stroke-width="1" stroke-linecap="round" stroke-opacity="1.0"/><text x="82.00" y="52.18" font-family="Inter, 'Segoe UI', Helvetica, Arial, sans-serif" font-size="11" fill="#52514e" text-anchor="end" font-weight="normal">1</text><line x1="90.00" y1="230.00" x2="650.00" y2="230.00" stroke="#e6e5e1" stroke-width="1" stroke-linecap="round" stroke-opacity="1.0"/><text x="370.00" y="264.00" font-family="Inter, 'Segoe UI', Helvetica, Arial, sans-serif" font-size="11.5" fill="#52514e" text-anchor="middle" font-weight="normal">stratum</text><text x="46.00" y="130.00" font-family="Inter, 'Segoe UI', Helvetica, Arial, sans-serif" font-size="11.5" fill="#52514e" text-anchor="middle" font-weight="normal" transform="rotate(-90 46.00 130.00)">score</text><path d="M132.00,230.00 L132.00,121.27 Q132.00,117.27 136.00,117.27 L230.67,117.27 Q234.67,117.27 234.67,121.27 L234.67,230.00 Z" fill="#2a78d6" fill-opacity="1.0"></path><text x="183.33" y="246.00" font-family="Inter, 'Segoe UI', Helvetica, Arial, sans-serif" font-size="11" fill="#52514e" text-anchor="middle" font-weight="normal">group A</text><path d="M318.67,230.00 L318.67,146.73 Q318.67,142.73 322.67,142.73 L417.33,142.73 Q421.33,142.73 421.33,146.73 L421.33,230.00 Z" fill="#2a78d6" fill-opacity="1.0"></path><text x="370.00" y="246.00" font-family="Inter, 'Segoe UI', Helvetica, Arial, sans-serif" font-size="11" fill="#52514e" text-anchor="middle" font-weight="normal">group B</text><path d="M505.33,230.00 L505.33,124.91 Q505.33,120.91 509.33,120.91 L604.00,120.91 Q608.00,120.91 608.00,124.91 L608.00,230.00 Z" fill="#2a78d6" fill-opacity="1.0"></path><text x="556.67" y="246.00" font-family="Inter, 'Segoe UI', Helvetica, Arial, sans-serif" font-size="11" fill="#52514e" text-anchor="middle" font-weight="normal">group C</text><line x1="90.00" y1="84.55" x2="650.00" y2="84.55" stroke="#0b0b0b" stroke-width="1.5" stroke-linecap="round" stroke-dasharray="6 4" stroke-opacity="1.0"/><text x="646.00" y="78.55" font-family="Inter, 'Segoe UI', Helvetica, Arial, sans-serif" font-size="11.5" fill="#52514e" text-anchor="end" font-weight="normal">bar</text><line x1="90.00" y1="126.97" x2="650.00" y2="126.97" stroke="#8a897f" stroke-width="1.5" stroke-linecap="round" stroke-opacity="1.0"/><text x="94.00" y="120.97" font-family="Inter, 'Segoe UI', Helvetica, Arial, sans-serif" font-size="11.5" fill="#52514e" text-anchor="start" font-weight="normal">mean passes, the minimum fails</text></svg>