<svg xmlns="http://www.w3.org/2000/svg" width="720" height="300" viewBox="0 0 720 300" role="img" aria-label="The bin-weighted gap between the mean score and the fraction of positives."><rect width="100%" height="100%" fill="#fcfcfb"/><line x1="110.00" y1="245.00" x2="410.00" y2="245.00" stroke="#e6e5e1" stroke-width="1" stroke-linecap="round" stroke-opacity="1.0"/><text x="102.00" y="249.00" font-family="Inter, 'Segoe UI', Helvetica, Arial, sans-serif" font-size="11" fill="#52514e" text-anchor="end" font-weight="normal">0</text><line x1="110.00" y1="137.50" x2="410.00" y2="137.50" stroke="#e6e5e1" stroke-width="1" stroke-linecap="round" stroke-opacity="1.0"/><text x="102.00" y="141.50" font-family="Inter, 'Segoe UI', Helvetica, Arial, sans-serif" font-size="11" fill="#52514e" text-anchor="end" font-weight="normal">0.5</text><line x1="110.00" y1="30.00" x2="410.00" y2="30.00" stroke="#e6e5e1" stroke-width="1" stroke-linecap="round" stroke-opacity="1.0"/><text x="102.00" y="34.00" font-family="Inter, 'Segoe UI', Helvetica, Arial, sans-serif" font-size="11" fill="#52514e" text-anchor="end" font-weight="normal">1</text><text x="110.00" y="261.00" font-family="Inter, 'Segoe UI', Helvetica, Arial, sans-serif" font-size="11" fill="#52514e" text-anchor="middle" font-weight="normal">0</text><text x="260.00" y="261.00" font-family="Inter, 'Segoe UI', Helvetica, Arial, sans-serif" font-size="11" fill="#52514e" text-anchor="middle" font-weight="normal">0.5</text><text x="410.00" y="261.00" font-family="Inter, 'Segoe UI', Helvetica, Arial, sans-serif" font-size="11" fill="#52514e" text-anchor="middle" font-weight="normal">1</text><line x1="110.00" y1="245.00" x2="410.00" y2="245.00" stroke="#e6e5e1" stroke-width="1" stroke-linecap="round" stroke-opacity="1.0"/><text x="260.00" y="279.00" font-family="Inter, 'Segoe UI', Helvetica, Arial, sans-serif" font-size="11.5" fill="#52514e" text-anchor="middle" font-weight="normal">true fraction</text><text x="66.00" y="137.50" font-family="Inter, 'Segoe UI', Helvetica, Arial, sans-serif" font-size="11.5" fill="#52514e" text-anchor="middle" font-weight="normal" transform="rotate(-90 66.00 137.50)">positive fraction</text><line x1="110.00" y1="245.00" x2="410.00" y2="30.00" stroke="#8a897f" stroke-width="1.5" stroke-linecap="round" stroke-dasharray="5 4" stroke-opacity="1.0"/><polyline points="110.00,245.00 140.00,211.54 170.00,179.25 200.00,149.19 230.00,122.19 260.00,98.80 290.00,79.19 320.00,63.19 350.00,50.25 380.00,39.54 410.00,30.00" fill="none" stroke="#1baf7a" stroke-width="2.5" stroke-linejoin="round" stroke-linecap="round"></polyline><circle cx="140.00" cy="211.54" r="6.00" fill="#fcfcfb"/><circle cx="140.00" cy="211.54" r="4.00" fill="#1baf7a"></circle><circle cx="200.00" cy="149.19" r="6.00" fill="#fcfcfb"/><circle cx="200.00" cy="149.19" r="4.00" fill="#1baf7a"></circle><circle cx="260.00" cy="98.80" r="6.00" fill="#fcfcfb"/><circle cx="260.00" cy="98.80" r="4.00" fill="#1baf7a"></circle><circle cx="320.00" cy="63.19" r="6.00" fill="#fcfcfb"/><circle cx="320.00" cy="63.19" r="4.00" fill="#1baf7a"></circle><circle cx="380.00" cy="39.54" r="6.00" fill="#fcfcfb"/><circle cx="380.00" cy="39.54" r="4.00" fill="#1baf7a"></circle><text x="430.00" y="80.00" font-family="Inter, 'Segoe UI', Helvetica, Arial, sans-serif" font-size="11.5" fill="#52514e" text-anchor="start" font-weight="normal">bins above the diagonal</text><text x="430.00" y="98.00" font-family="Inter, 'Segoe UI', Helvetica, Arial, sans-serif" font-size="11.5" fill="#52514e" text-anchor="start" font-weight="normal">score below the observed rate</text></svg>