<svg xmlns="http://www.w3.org/2000/svg" width="720" height="300" viewBox="0 0 720 300" role="img" aria-label="Concordant pairs less discordant pairs over all pairs."><rect width="100%" height="100%" fill="#fcfcfb"/><line x1="90.00" y1="240.00" x2="630.00" y2="240.00" stroke="#e6e5e1" stroke-width="1" stroke-linecap="round" stroke-opacity="1.0"/><circle cx="144.00" cy="233.70" r="6.00" fill="#fcfcfb"/><circle cx="144.00" cy="233.70" r="4.00" fill="#2a78d6"></circle><circle cx="192.60" cy="197.80" r="6.00" fill="#fcfcfb"/><circle cx="192.60" cy="197.80" r="4.00" fill="#2a78d6"></circle><circle cx="241.20" cy="120.50" r="6.00" fill="#fcfcfb"/><circle cx="241.20" cy="120.50" r="4.00" fill="#2a78d6"></circle><circle cx="289.80" cy="173.60" r="6.00" fill="#fcfcfb"/><circle cx="289.80" cy="173.60" r="4.00" fill="#2a78d6"></circle><circle cx="338.40" cy="181.16" r="6.00" fill="#fcfcfb"/><circle cx="338.40" cy="181.16" r="4.00" fill="#2a78d6"></circle><circle cx="387.00" cy="161.84" r="6.00" fill="#fcfcfb"/><circle cx="387.00" cy="161.84" r="4.00" fill="#2a78d6"></circle><circle cx="435.60" cy="95.93" r="6.00" fill="#fcfcfb"/><circle cx="435.60" cy="95.93" r="4.00" fill="#2a78d6"></circle><circle cx="484.20" cy="126.89" r="6.00" fill="#fcfcfb"/><circle cx="484.20" cy="126.89" r="4.00" fill="#2a78d6"></circle><circle cx="532.80" cy="73.15" r="6.00" fill="#fcfcfb"/><circle cx="532.80" cy="73.15" r="4.00" fill="#2a78d6"></circle><circle cx="581.40" cy="94.73" r="6.00" fill="#fcfcfb"/><circle cx="581.40" cy="94.73" r="4.00" fill="#2a78d6"></circle><text x="144.00" y="44.70" font-family="Inter, 'Segoe UI', Helvetica, Arial, sans-serif" font-size="11.5" fill="#52514e" text-anchor="start" font-weight="normal">rank of one score against rank of another</text></svg>