<svg xmlns="http://www.w3.org/2000/svg" width="720" height="300" viewBox="0 0 720 300" role="img" aria-label="A claim is licensed when it was sealed before the run and its bar separated it from the null."><rect width="100%" height="100%" fill="#fcfcfb"/><text x="80.00" y="246.00" font-family="Inter, 'Segoe UI', Helvetica, Arial, sans-serif" font-size="11" fill="#52514e" text-anchor="middle" font-weight="normal">0</text><text x="365.00" y="246.00" font-family="Inter, 'Segoe UI', Helvetica, Arial, sans-serif" font-size="11" fill="#52514e" text-anchor="middle" font-weight="normal">0.5</text><text x="650.00" y="246.00" font-family="Inter, 'Segoe UI', Helvetica, Arial, sans-serif" font-size="11" fill="#52514e" text-anchor="middle" font-weight="normal">1</text><line x1="80.00" y1="230.00" x2="650.00" y2="230.00" stroke="#e6e5e1" stroke-width="1" stroke-linecap="round" stroke-opacity="1.0"/><text x="365.00" y="264.00" font-family="Inter, 'Segoe UI', Helvetica, Arial, sans-serif" font-size="11.5" fill="#52514e" text-anchor="middle" font-weight="normal">statistic</text><polyline points="80.00,229.30 85.70,228.99 91.40,228.56 97.10,227.98 102.80,227.20 108.50,226.16 114.20,224.81 119.90,223.06 125.60,220.84 131.30,218.05 137.00,214.61 142.70,210.42 148.40,205.39 154.10,199.46 159.80,192.56 165.50,184.66 171.20,175.78 176.90,165.94 182.60,155.25 188.30,143.85 194.00,131.93 199.70,119.72 205.40,107.52 211.10,95.64 216.80,84.41 222.50,74.18 228.20,65.28 233.90,58.01 239.60,52.62 245.30,49.30 251.00,48.18 256.70,49.30 262.40,52.62 268.10,58.01 273.80,65.28 279.50,74.18 285.20,84.41 290.90,95.64 296.60,107.52 302.30,119.72 308.00,131.93 313.70,143.85 319.40,155.25 325.10,165.94 330.80,175.78 336.50,184.66 342.20,192.56 347.90,199.46 353.60,205.39 359.30,210.42 365.00,214.61 370.70,218.05 376.40,220.84 382.10,223.06 387.80,224.81 393.50,226.16 399.20,227.20 404.90,227.98 410.60,228.56 416.30,228.99 422.00,229.30 427.70,229.52 433.40,229.67 439.10,229.78 444.80,229.86 450.50,229.91 456.20,229.94 461.90,229.96 467.60,229.98 473.30,229.98 479.00,229.99 484.70,229.99 490.40,230.00 496.10,230.00 501.80,230.00 507.50,230.00 513.20,230.00 518.90,230.00 524.60,230.00 530.30,230.00 536.00,230.00 541.70,230.00 547.40,230.00 553.10,230.00 558.80,230.00 564.50,230.00 570.20,230.00 575.90,230.00 581.60,230.00 587.30,230.00 593.00,230.00 598.70,230.00 604.40,230.00 610.10,230.00 615.80,230.00 621.50,230.00 627.20,230.00 632.90,230.00 638.60,230.00 644.30,230.00 650.00,230.00" fill="none" stroke="#8a897f" stroke-width="2.5" stroke-linejoin="round" stroke-linecap="round"></polyline><text x="251.00" y="39.09" font-family="Inter, 'Segoe UI', Helvetica, Arial, sans-serif" font-size="11.5" fill="#52514e" text-anchor="middle" font-weight="normal">null</text><polyline points="80.00,230.00 85.70,230.00 91.40,230.00 97.10,230.00 102.80,230.00 108.50,230.00 114.20,230.00 119.90,230.00 125.60,230.00 131.30,230.00 137.00,230.00 142.70,230.00 148.40,230.00 154.10,230.00 159.80,230.00 165.50,230.00 171.20,230.00 176.90,230.00 182.60,230.00 188.30,230.00 194.00,230.00 199.70,230.00 205.40,230.00 211.10,230.00 216.80,230.00 222.50,230.00 228.20,230.00 233.90,230.00 239.60,230.00 245.30,230.00 251.00,230.00 256.70,229.99 262.40,229.99 268.10,229.98 273.80,229.98 279.50,229.96 285.20,229.94 290.90,229.91 296.60,229.86 302.30,229.78 308.00,229.67 313.70,229.52 319.40,229.30 325.10,228.99 330.80,228.56 336.50,227.98 342.20,227.20 347.90,226.16 353.60,224.81 359.30,223.06 365.00,220.84 370.70,218.05 376.40,214.61 382.10,210.42 387.80,205.39 393.50,199.46 399.20,192.56 404.90,184.66 410.60,175.78 416.30,165.94 422.00,155.25 427.70,143.85 433.40,131.93 439.10,119.72 444.80,107.52 450.50,95.64 456.20,84.41 461.90,74.18 467.60,65.28 473.30,58.01 479.00,52.62 484.70,49.30 490.40,48.18 496.10,49.30 501.80,52.62 507.50,58.01 513.20,65.28 518.90,74.18 524.60,84.41 530.30,95.64 536.00,107.52 541.70,119.72 547.40,131.93 553.10,143.85 558.80,155.25 564.50,165.94 570.20,175.78 575.90,184.66 581.60,192.56 587.30,199.46 593.00,205.39 598.70,210.42 604.40,214.61 610.10,218.05 615.80,220.84 621.50,223.06 627.20,224.81 632.90,226.16 638.60,227.20 644.30,227.98 650.00,228.56" fill="none" stroke="#2a78d6" stroke-width="2.5" stroke-linejoin="round" stroke-linecap="round"></polyline><text x="490.40" y="39.09" font-family="Inter, 'Segoe UI', Helvetica, Arial, sans-serif" font-size="11.5" fill="#52514e" text-anchor="middle" font-weight="normal">system</text><line x1="393.50" y1="30.00" x2="393.50" y2="230.00" stroke="#0b0b0b" stroke-width="2" stroke-linecap="round" stroke-dasharray="6 4" stroke-opacity="1.0"/><text x="399.50" y="44.00" font-family="Inter, 'Segoe UI', Helvetica, Arial, sans-serif" font-size="11.5" fill="#0b0b0b" text-anchor="start" font-weight="normal">bar</text></svg>