<svg xmlns="http://www.w3.org/2000/svg" width="720" height="300" viewBox="0 0 720 300" role="img" aria-label="The worst stratum is the verdict."><rect width="100%" height="100%" fill="#fcfcfb"/><line x1="90.00" y1="230.00" x2="650.00" y2="230.00" stroke="#e6e5e1" stroke-width="1" stroke-linecap="round" stroke-opacity="1.0"/><text x="82.00" y="234.00" font-family="Inter, 'Segoe UI', Helvetica, Arial, sans-serif" font-size="11" fill="#52514e" text-anchor="end" font-weight="normal">0</text><line x1="90.00" y1="139.09" x2="650.00" y2="139.09" stroke="#e6e5e1" stroke-width="1" stroke-linecap="round" stroke-opacity="1.0"/><text x="82.00" y="143.09" font-family="Inter, 'Segoe UI', Helvetica, Arial, sans-serif" font-size="11" fill="#52514e" text-anchor="end" font-weight="normal">0.5</text><line x1="90.00" y1="48.18" x2="650.00" y2="48.18" stroke="#e6e5e1" stroke-width="1" stroke-linecap="round" stroke-opacity="1.0"/><text x="82.00" y="52.18" font-family="Inter, 'Segoe UI', Helvetica, Arial, sans-serif" font-size="11" fill="#52514e" text-anchor="end" font-weight="normal">1</text><line x1="90.00" y1="230.00" x2="650.00" y2="230.00" stroke="#e6e5e1" stroke-width="1" stroke-linecap="round" stroke-opacity="1.0"/><text x="370.00" y="264.00" font-family="Inter, 'Segoe UI', Helvetica, Arial, sans-serif" font-size="11.5" fill="#52514e" text-anchor="middle" font-weight="normal">stratum</text><text x="46.00" y="130.00" font-family="Inter, 'Segoe UI', Helvetica, Arial, sans-serif" font-size="11.5" fill="#52514e" text-anchor="middle" font-weight="normal" transform="rotate(-90 46.00 130.00)">score</text><path d="M108.00,230.00 L108.00,61.27 Q108.00,57.27 112.00,57.27 L148.00,57.27 Q152.00,57.27 152.00,61.27 L152.00,230.00 Z" fill="#2a78d6" fill-opacity="1.0"></path><text x="130.00" y="246.00" font-family="Inter, 'Segoe UI', Helvetica, Arial, sans-serif" font-size="11" fill="#52514e" text-anchor="middle" font-weight="normal">s1</text><path d="M188.00,230.00 L188.00,64.91 Q188.00,60.91 192.00,60.91 L228.00,60.91 Q232.00,60.91 232.00,64.91 L232.00,230.00 Z" fill="#2a78d6" fill-opacity="1.0"></path><text x="210.00" y="246.00" font-family="Inter, 'Segoe UI', Helvetica, Arial, sans-serif" font-size="11" fill="#52514e" text-anchor="middle" font-weight="normal">s2</text><path d="M268.00,230.00 L268.00,57.64 Q268.00,53.64 272.00,53.64 L308.00,53.64 Q312.00,53.64 312.00,57.64 L312.00,230.00 Z" fill="#2a78d6" fill-opacity="1.0"></path><text x="290.00" y="246.00" font-family="Inter, 'Segoe UI', Helvetica, Arial, sans-serif" font-size="11" fill="#52514e" text-anchor="middle" font-weight="normal">s3</text><path d="M348.00,230.00 L348.00,114.00 Q348.00,110.00 352.00,110.00 L388.00,110.00 Q392.00,110.00 392.00,114.00 L392.00,230.00 Z" fill="#d03b3b" fill-opacity="1.0"></path><text x="370.00" y="246.00" font-family="Inter, 'Segoe UI', Helvetica, Arial, sans-serif" font-size="11" fill="#52514e" text-anchor="middle" font-weight="normal">s4</text><path d="M428.00,230.00 L428.00,63.09 Q428.00,59.09 432.00,59.09 L468.00,59.09 Q472.00,59.09 472.00,63.09 L472.00,230.00 Z" fill="#2a78d6" fill-opacity="1.0"></path><text x="450.00" y="246.00" font-family="Inter, 'Segoe UI', Helvetica, Arial, sans-serif" font-size="11" fill="#52514e" text-anchor="middle" font-weight="normal">s5</text><path d="M508.00,230.00 L508.00,66.73 Q508.00,62.73 512.00,62.73 L548.00,62.73 Q552.00,62.73 552.00,66.73 L552.00,230.00 Z" fill="#2a78d6" fill-opacity="1.0"></path><text x="530.00" y="246.00" font-family="Inter, 'Segoe UI', Helvetica, Arial, sans-serif" font-size="11" fill="#52514e" text-anchor="middle" font-weight="normal">s6</text><path d="M588.00,230.00 L588.00,59.45 Q588.00,55.45 592.00,55.45 L628.00,55.45 Q632.00,55.45 632.00,59.45 L632.00,230.00 Z" fill="#2a78d6" fill-opacity="1.0"></path><text x="610.00" y="246.00" font-family="Inter, 'Segoe UI', Helvetica, Arial, sans-serif" font-size="11" fill="#52514e" text-anchor="middle" font-weight="normal">s7</text><line x1="90.00" y1="66.36" x2="650.00" y2="66.36" stroke="#0b0b0b" stroke-width="1.5" stroke-linecap="round" stroke-dasharray="6 4" stroke-opacity="1.0"/><text x="646.00" y="60.36" font-family="Inter, 'Segoe UI', Helvetica, Arial, sans-serif" font-size="11.5" fill="#52514e" text-anchor="end" font-weight="normal">bar</text><line x1="90.00" y1="65.58" x2="650.00" y2="65.58" stroke="#8a897f" stroke-width="1.5" stroke-linecap="round" stroke-opacity="1.0"/><text x="94.00" y="59.58" font-family="Inter, 'Segoe UI', Helvetica, Arial, sans-serif" font-size="11.5" fill="#52514e" text-anchor="start" font-weight="normal">mean passes, the minimum fails</text></svg>