<svg xmlns="http://www.w3.org/2000/svg" width="720" height="300" viewBox="0 0 720 300" role="img" aria-label="Optimal thresholded F1 survives any strictly monotone transform, AUROC only an increasing one."><rect width="100%" height="100%" fill="#fcfcfb"/><line x1="110.00" y1="245.00" x2="410.00" y2="245.00" stroke="#e6e5e1" stroke-width="1" stroke-linecap="round" stroke-opacity="1.0"/><text x="102.00" y="249.00" font-family="Inter, 'Segoe UI', Helvetica, Arial, sans-serif" font-size="11" fill="#52514e" text-anchor="end" font-weight="normal">0</text><line x1="110.00" y1="137.50" x2="410.00" y2="137.50" stroke="#e6e5e1" stroke-width="1" stroke-linecap="round" stroke-opacity="1.0"/><text x="102.00" y="141.50" font-family="Inter, 'Segoe UI', Helvetica, Arial, sans-serif" font-size="11" fill="#52514e" text-anchor="end" font-weight="normal">0.5</text><line x1="110.00" y1="30.00" x2="410.00" y2="30.00" stroke="#e6e5e1" stroke-width="1" stroke-linecap="round" stroke-opacity="1.0"/><text x="102.00" y="34.00" font-family="Inter, 'Segoe UI', Helvetica, Arial, sans-serif" font-size="11" fill="#52514e" text-anchor="end" font-weight="normal">1</text><text x="110.00" y="261.00" font-family="Inter, 'Segoe UI', Helvetica, Arial, sans-serif" font-size="11" fill="#52514e" text-anchor="middle" font-weight="normal">0</text><text x="260.00" y="261.00" font-family="Inter, 'Segoe UI', Helvetica, Arial, sans-serif" font-size="11" fill="#52514e" text-anchor="middle" font-weight="normal">0.5</text><text x="410.00" y="261.00" font-family="Inter, 'Segoe UI', Helvetica, Arial, sans-serif" font-size="11" fill="#52514e" text-anchor="middle" font-weight="normal">1</text><line x1="110.00" y1="245.00" x2="410.00" y2="245.00" stroke="#e6e5e1" stroke-width="1" stroke-linecap="round" stroke-opacity="1.0"/><text x="260.00" y="279.00" font-family="Inter, 'Segoe UI', Helvetica, Arial, sans-serif" font-size="11.5" fill="#52514e" text-anchor="middle" font-weight="normal">false positive rate</text><text x="66.00" y="137.50" font-family="Inter, 'Segoe UI', Helvetica, Arial, sans-serif" font-size="11.5" fill="#52514e" text-anchor="middle" font-weight="normal" transform="rotate(-90 66.00 137.50)">true positive rate</text><line x1="110.00" y1="245.00" x2="410.00" y2="30.00" stroke="#8a897f" stroke-width="1.5" stroke-linecap="round" stroke-dasharray="5 4" stroke-opacity="1.0"/><polyline points="110.00,245.00 117.50,185.88 125.00,169.65 132.50,158.16 140.00,148.96 147.50,141.16 155.00,134.32 162.50,128.18 170.00,122.60 177.50,117.44 185.00,112.65 192.50,108.16 200.00,103.93 207.50,99.92 215.00,96.11 222.50,92.47 230.00,88.99 237.50,85.64 245.00,82.42 252.50,79.32 260.00,76.31 267.50,73.41 275.00,70.59 282.50,67.86 290.00,65.20 297.50,62.61 305.00,60.09 312.50,57.63 320.00,55.23 327.50,52.89 335.00,50.59 342.50,48.35 350.00,46.15 357.50,44.00 365.00,41.89 372.50,39.82 380.00,37.78 387.50,35.79 395.00,33.83 402.50,31.90 410.00,30.00" fill="none" stroke="#eb6834" stroke-width="2.5" stroke-linejoin="round" stroke-linecap="round"></polyline><polyline points="110.00,245.00 117.50,228.74 125.00,218.59 132.50,209.93 140.00,202.10 147.50,194.85 155.00,188.02 162.50,181.53 170.00,175.31 177.50,169.32 185.00,163.53 192.50,157.91 200.00,152.44 207.50,147.11 215.00,141.89 222.50,136.79 230.00,131.79 237.50,126.88 245.00,122.06 252.50,117.32 260.00,112.65 267.50,108.05 275.00,103.52 282.50,99.05 290.00,94.64 297.50,90.28 305.00,85.97 312.50,81.71 320.00,77.50 327.50,73.34 335.00,69.22 342.50,65.13 350.00,61.09 357.50,57.09 365.00,53.12 372.50,49.19 380.00,45.29 387.50,41.42 395.00,37.58 402.50,33.78 410.00,30.00" fill="none" stroke="#eb6834" stroke-width="2.5" stroke-linejoin="round" stroke-linecap="round"></polyline><text x="430.00" y="120.00" font-family="Inter, 'Segoe UI', Helvetica, Arial, sans-serif" font-size="11.5" fill="#52514e" text-anchor="start" font-weight="normal">the reversed score</text><text x="430.00" y="80.00" font-family="Inter, 'Segoe UI', Helvetica, Arial, sans-serif" font-size="11.5" fill="#52514e" text-anchor="start" font-weight="normal">area under the curve, AUROC</text><text x="430.00" y="98.00" font-family="Inter, 'Segoe UI', Helvetica, Arial, sans-serif" font-size="11.5" fill="#52514e" text-anchor="start" font-weight="normal">chance is the diagonal</text></svg>