<svg xmlns="http://www.w3.org/2000/svg" width="720" height="300" viewBox="0 0 720 300" role="img" aria-label="Dot product zero."><rect width="100%" height="100%" fill="#fcfcfb"/><line x1="220.00" y1="235.00" x2="550.00" y2="235.00" stroke="#e6e5e1" stroke-width="1" stroke-linecap="round" stroke-opacity="1.0"/><line x1="250.00" y1="255.00" x2="250.00" y2="25.00" stroke="#e6e5e1" stroke-width="1" stroke-linecap="round" stroke-opacity="1.0"/><line x1="250.00" y1="235.00" x2="510.00" y2="235.00" stroke="#0b0b0b" stroke-width="2" stroke-linecap="round" stroke-opacity="1.0"/><line x1="510.00" y1="235.00" x2="503.14" y2="239.12" stroke="#0b0b0b" stroke-width="2" stroke-linecap="round" stroke-opacity="1.0"/><line x1="510.00" y1="235.00" x2="503.14" y2="230.88" stroke="#0b0b0b" stroke-width="2" stroke-linecap="round" stroke-opacity="1.0"/><line x1="250.00" y1="235.00" x2="250.00" y2="35.00" stroke="#2a78d6" stroke-width="2" stroke-linecap="round" stroke-opacity="1.0"/><line x1="250.00" y1="35.00" x2="254.12" y2="41.86" stroke="#2a78d6" stroke-width="2" stroke-linecap="round" stroke-opacity="1.0"/><line x1="250.00" y1="35.00" x2="245.88" y2="41.86" stroke="#2a78d6" stroke-width="2" stroke-linecap="round" stroke-opacity="1.0"/><text x="518.00" y="239.00" font-family="Inter, 'Segoe UI', Helvetica, Arial, sans-serif" font-size="13" fill="#0b0b0b" text-anchor="start" font-weight="normal">u</text><text x="258.00" y="35.00" font-family="Inter, 'Segoe UI', Helvetica, Arial, sans-serif" font-size="13" fill="#0b0b0b" text-anchor="start" font-weight="normal">v</text><polyline points="310.00,235.00 309.82,230.29 309.26,225.61 308.34,220.99 307.06,216.46 305.43,212.04 303.46,207.76 301.16,203.65 298.54,199.73 295.62,196.03 292.43,192.57 288.97,189.38 285.27,186.46 281.35,183.84 277.24,181.54 272.96,179.57 268.54,177.94 264.01,176.66 259.39,175.74 254.71,175.18 250.00,175.00" fill="none" stroke="#52514e" stroke-width="1.5" stroke-linejoin="round" stroke-linecap="round"></polyline><text x="305.15" y="183.85" font-family="Inter, 'Segoe UI', Helvetica, Arial, sans-serif" font-size="12" fill="#52514e" text-anchor="middle" font-weight="normal" font-style="italic">θ</text></svg>