<svg xmlns="http://www.w3.org/2000/svg" width="720" height="300" viewBox="0 0 720 300" role="img" aria-label="The eigenvalue count grows like the value to half the dimension."><rect width="100%" height="100%" fill="#fcfcfb"/><line x1="100.00" y1="240.00" x2="640.00" y2="240.00" stroke="#e6e5e1" stroke-width="1" stroke-linecap="round" stroke-opacity="1.0"/><text x="92.00" y="244.00" font-family="Inter, 'Segoe UI', Helvetica, Arial, sans-serif" font-size="11" fill="#52514e" text-anchor="end" font-weight="normal">1</text><line x1="100.00" y1="135.00" x2="640.00" y2="135.00" stroke="#e6e5e1" stroke-width="1" stroke-linecap="round" stroke-opacity="1.0"/><text x="92.00" y="139.00" font-family="Inter, 'Segoe UI', Helvetica, Arial, sans-serif" font-size="11" fill="#52514e" text-anchor="end" font-weight="normal">10</text><line x1="100.00" y1="30.00" x2="640.00" y2="30.00" stroke="#e6e5e1" stroke-width="1" stroke-linecap="round" stroke-opacity="1.0"/><text x="92.00" y="34.00" font-family="Inter, 'Segoe UI', Helvetica, Arial, sans-serif" font-size="11" fill="#52514e" text-anchor="end" font-weight="normal">100</text><text x="100.00" y="256.00" font-family="Inter, 'Segoe UI', Helvetica, Arial, sans-serif" font-size="11" fill="#52514e" text-anchor="middle" font-weight="normal">1</text><text x="370.00" y="256.00" font-family="Inter, 'Segoe UI', Helvetica, Arial, sans-serif" font-size="11" fill="#52514e" text-anchor="middle" font-weight="normal">10</text><text x="640.00" y="256.00" font-family="Inter, 'Segoe UI', Helvetica, Arial, sans-serif" font-size="11" fill="#52514e" text-anchor="middle" font-weight="normal">100</text><line x1="100.00" y1="240.00" x2="640.00" y2="240.00" stroke="#e6e5e1" stroke-width="1" stroke-linecap="round" stroke-opacity="1.0"/><text x="370.00" y="274.00" font-family="Inter, 'Segoe UI', Helvetica, Arial, sans-serif" font-size="11.5" fill="#52514e" text-anchor="middle" font-weight="normal">eigenvalue, log</text><text x="56.00" y="135.00" font-family="Inter, 'Segoe UI', Helvetica, Arial, sans-serif" font-size="11.5" fill="#52514e" text-anchor="middle" font-weight="normal" transform="rotate(-90 56.00 135.00)">count below it, log</text><polyline points="100.00,228.04 121.38,221.80 142.76,215.56 164.14,209.33 185.52,203.09 206.89,196.86 228.27,190.62 249.65,184.39 271.03,178.15 292.41,171.92 313.79,165.68 335.17,159.45 356.55,153.21 377.93,146.97 399.31,140.74 420.68,134.50 442.06,128.27 463.44,122.03 484.82,115.80 506.20,109.56 527.58,103.33 548.96,97.09 570.34,90.85 591.72,84.62 613.09,78.38 634.47,72.15" fill="none" stroke="#2a78d6" stroke-width="2.5" stroke-linejoin="round" stroke-linecap="round"></polyline><text x="498.82" y="126.69" font-family="Inter, 'Segoe UI', Helvetica, Arial, sans-serif" font-size="12" fill="#52514e" text-anchor="start" font-weight="normal" font-style="italic">slope d/2</text></svg>